HIERARCHY
ROOT root
{
	OFFSET 0.000000 0.000000 0.000000
	CHANNELS 6 Xposition Yposition Zposition Zrotation Yrotation Xrotation
	JOINT lhip
	{
		OFFSET 0.058581 -0.082280 -0.017664
		CHANNELS 3 Zrotation Yrotation Xrotation
		JOINT lknee
		{
			OFFSET 0.043451 -0.386469 0.008037
			CHANNELS 3 Zrotation Yrotation Xrotation
			JOINT lankle
			{
				OFFSET -0.014790 -0.426874 -0.037428
				CHANNELS 3 Zrotation Yrotation Xrotation
				JOINT ltoe
				{
					OFFSET 0.041054 -0.060286 0.122042
					CHANNELS 3 Zrotation Yrotation Xrotation
					End Site
					{
						OFFSET 0.000000 0.000000 0.000000
					}
				}
			}
		}
	}
	JOINT rhip
	{
		OFFSET -0.060310 -0.090513 -0.013543
		CHANNELS 3 Zrotation Yrotation Xrotation
		JOINT rknee
		{
			OFFSET -0.043257 -0.383688 -0.004843
			CHANNELS 3 Zrotation Yrotation Xrotation
			JOINT rankle
			{
				OFFSET 0.019056 -0.420046 -0.034562
				CHANNELS 3 Zrotation Yrotation Xrotation
				JOINT rtoe
				{
					OFFSET -0.034840 -0.062106 0.130323
					CHANNELS 3 Zrotation Yrotation Xrotation
					End Site
					{
						OFFSET 0.000000 0.000000 0.000000
					}
				}
			}
		}
	}
	JOINT lowerback
	{
		OFFSET 0.004439 0.124404 -0.038385
		CHANNELS 3 Zrotation Yrotation Xrotation
		JOINT upperback
		{
			OFFSET 0.004488 0.137956 0.026820
			CHANNELS 3 Zrotation Yrotation Xrotation
			JOINT chest
			{
				OFFSET -0.002265 0.056032 0.002855
				CHANNELS 3 Zrotation Yrotation Xrotation
				JOINT lowerneck
				{
					OFFSET -0.013390 0.211636 -0.033468
					CHANNELS 3 Zrotation Yrotation Xrotation
					JOINT upperneck
					{
						OFFSET 0.010113 0.088937 0.050410
						CHANNELS 3 Zrotation Yrotation Xrotation
						End Site
						{
							OFFSET 0.000000 0.000000 0.000000
						}
					}
				}
				JOINT lclavicle
				{
					OFFSET 0.071702 0.114000 -0.018898
					CHANNELS 3 Zrotation Yrotation Xrotation
					JOINT lshoulder
					{
						OFFSET 0.122921 0.045205 -0.019046
						CHANNELS 3 Zrotation Yrotation Xrotation
						JOINT lelbow
						{
							OFFSET 0.255332 -0.015649 -0.022946
							CHANNELS 3 Zrotation Yrotation Xrotation
							JOINT lwrist
							{
								OFFSET 0.265709 0.012698 -0.007375
								CHANNELS 3 Zrotation Yrotation Xrotation
								End Site
								{
									OFFSET 0.000000 0.000000 0.000000
								}
							}
						}
					}
				}
				JOINT rclavicle
				{
					OFFSET -0.082954 0.112472 -0.023707
					CHANNELS 3 Zrotation Yrotation Xrotation
					JOINT rshoulder
					{
						OFFSET -0.113228 0.046853 -0.008472
						CHANNELS 3 Zrotation Yrotation Xrotation
						JOINT relbow
						{
							OFFSET -0.260127 -0.014369 -0.031269
							CHANNELS 3 Zrotation Yrotation Xrotation
							JOINT rwrist
							{
								OFFSET -0.269108 0.006794 -0.006027
								CHANNELS 3 Zrotation Yrotation Xrotation
								End Site
								{
									OFFSET 0.000000 0.000000 0.000000
								}
							}
						}
					}
				}
			}
		}
	}
}
MOTION
Frames: 10
Frame Time: 0.033333
-0.042722 0.845080 1.007218 -2.771474 2.435837 86.818105 -0.073828 3.994857 8.643052 -2.753423 -3.371143 -2.108319 4.434534 10.148443 -12.658011 0.000000 -0.000000 0.000000 -0.212710 -1.130248 1.086833 0.648579 3.677688 12.739976 5.362115 -2.983943 -12.346228 0.000000 -0.000000 0.000000 -0.136411 0.105541 4.779562 0.390949 -0.991614 0.140883 -0.553131 -0.629476 2.479866 2.690457 4.110738 -0.389591 0.601149 0.611649 5.846530 -31.646463 3.038068 1.645815 -57.992628 -7.567188 5.749196 17.260061 -23.921480 -6.501180 0.903477 -3.664999 -6.492153 29.416455 0.793168 4.330247 56.799785 1.333201 14.465744 -17.507932 25.089354 -6.129634 5.166826 1.958785 -3.920837 
-0.039134 0.843056 1.006057 -2.717177 2.471263 86.431001 -0.213481 4.050169 9.337084 -2.809660 -3.608195 -2.297669 4.856751 10.242854 -12.990003 0.000000 -0.000000 0.000000 -0.403369 -0.776317 -0.208899 0.848008 3.327780 16.191109 5.285823 -2.949455 -12.989882 0.000000 -0.000000 0.000000 -0.452388 -0.110524 5.098138 0.378131 -1.022493 0.367176 -0.574853 -0.823013 2.409163 2.764965 4.505280 -0.756092 0.432659 0.632744 5.923307 -32.041550 2.070347 1.888349 -59.463373 -8.245138 6.638796 16.933996 -24.348781 -6.131637 0.642238 -3.890653 -6.508888 29.555655 1.436639 4.495433 57.155949 1.658998 14.748916 -17.918054 25.158671 -6.281126 5.341814 2.002148 -4.178768 
-0.035896 0.840791 1.005377 -2.484187 2.517759 85.916996 -0.314493 4.148057 10.157169 -2.820319 -3.940893 -2.455019 5.141683 10.269426 -13.278162 0.000000 -0.000000 0.000000 -0.514013 -0.424380 -1.579932 0.941902 2.815129 20.027704 5.214902 -3.145634 -13.456210 0.000000 -0.000000 0.000000 -0.777429 -0.493886 5.495247 0.444840 -1.058099 0.654129 -0.650332 -1.019376 2.331574 2.898323 4.813343 -0.839222 0.315300 0.660282 6.084435 -32.096510 0.809266 2.346580 -60.251500 -8.680706 7.724048 15.995749 -25.813732 -4.756583 0.571685 -4.107112 -5.802307 29.723927 2.232712 4.617302 57.532019 1.982091 14.787186 -18.132138 25.282601 -6.471170 5.589951 2.007823 -4.177059 
-0.032145 0.837970 1.005211 -2.279912 2.456346 85.300008 -0.641843 4.391525 11.052288 -2.662277 -4.497746 -2.494489 5.561198 10.482920 -13.613853 0.000000 -0.000000 0.000000 -0.721308 0.185488 -3.794739 0.962102 1.929293 25.362214 5.258250 -3.913060 -13.637634 0.000000 -0.000000 0.000000 -1.297050 -1.174336 6.181955 0.594016 -1.000538 0.782395 -0.786743 -1.157670 2.236640 3.169985 5.314480 -0.941172 0.012314 0.607224 6.480937 -31.692647 -0.701301 2.947616 -59.957352 -8.762171 9.554448 13.282999 -29.163308 -0.872181 0.333158 -4.594083 -3.970686 30.047814 3.161606 4.631378 57.898513 2.337355 14.915633 -18.152200 25.640407 -6.489611 5.782217 2.216685 -3.980743 
-0.030395 0.835755 1.005341 -2.102517 2.424792 84.990001 -0.785069 4.486635 11.564045 -2.601125 -4.814533 -2.567170 5.734443 10.590081 -13.658156 0.000000 -0.000000 0.000000 -0.799846 0.529169 -5.236829 0.955777 1.340666 28.357636 5.042021 -4.393242 -13.637542 0.000000 -0.000000 0.000000 -1.619938 -1.604263 6.527680 0.720549 -1.001437 0.845728 -0.866945 -1.244926 2.208752 3.331435 5.641667 -0.998697 -0.128099 0.567951 6.668307 -31.294417 -1.452004 3.272312 -59.314280 -8.750634 10.675452 11.161968 -31.566955 2.132874 -0.119105 -5.077848 -2.913470 30.257239 3.577596 4.633949 58.108910 2.606137 14.996167 -18.125904 25.973266 -6.331638 5.977850 2.366523 -3.918838 
-0.028262 0.832370 1.005671 -1.905748 2.445421 84.565291 -0.936773 4.755519 12.252739 -2.358529 -5.308111 -2.569259 6.069740 10.700858 -13.753809 0.000000 -0.000000 0.000000 -0.827420 0.888069 -7.201443 0.769519 0.502667 31.771321 4.609235 -5.012131 -13.088966 0.000000 -0.000000 0.000000 -1.927102 -2.242024 7.105193 0.901789 -0.927511 0.798742 -0.960062 -1.327700 2.267436 3.479824 6.023841 -1.054679 -0.451761 0.653149 6.725056 -30.718197 -2.127190 3.468890 -58.313682 -8.770318 11.903168 8.409223 -34.767603 6.376585 -0.951729 -5.683335 -1.595891 30.356062 3.830932 4.491906 58.553495 2.980938 15.058786 -18.180386 26.626928 -6.130342 6.144761 2.595591 -3.723372 
-0.026344 0.828278 1.005977 -1.747461 2.504588 84.182709 -1.024528 4.965193 12.963459 -2.116063 -5.624569 -2.628206 6.264649 10.779639 -13.840456 0.000000 -0.000000 0.000000 -0.838883 1.191986 -9.111298 0.369974 -0.513646 34.174668 4.216690 -5.669441 -12.000140 0.000000 -0.000000 0.000000 -2.140173 -2.831620 7.610611 1.014058 -0.868988 0.746567 -0.925845 -1.510516 2.394927 3.546254 6.377446 -1.097482 -0.647344 0.931096 6.724539 -30.093498 -2.552462 3.552124 -57.611280 -8.963094 12.685407 6.157147 -37.065909 9.513766 -1.263518 -6.151749 -0.795593 30.419440 3.826078 4.233289 58.979774 3.378771 15.195359 -18.331788 27.349176 -5.922932 5.905811 2.900752 -3.426386 
-0.024701 0.823543 1.006235 -1.295208 2.639127 83.799207 -0.916944 5.139756 13.646680 -1.980253 -6.083207 -2.562556 6.254658 10.731809 -14.079732 0.000000 -0.000000 0.000000 -0.820002 1.307582 -10.712994 -0.018145 -1.597649 35.262501 4.011173 -6.364951 -11.160016 0.000000 -0.000000 0.000000 -2.245944 -3.404739 8.176213 1.123157 -1.017702 0.660848 -0.808712 -1.876110 2.566239 3.581307 6.821938 -1.077546 -0.826659 1.364787 6.607598 -29.486979 -2.639908 3.524611 -57.228789 -9.237109 12.997960 4.760648 -38.535185 11.323539 -1.390353 -6.346424 -0.615622 30.365263 3.568137 3.712544 59.417328 3.733467 15.346333 -18.506794 28.134944 -5.752014 5.587372 2.980395 -3.196133 
-0.023414 0.818519 1.006208 -0.813994 2.762710 83.630663 -0.779344 5.263013 14.122415 -1.908319 -6.460476 -2.491583 6.169461 10.620245 -14.347163 0.000000 -0.000000 0.000000 -0.853089 1.402553 -12.385302 -0.292137 -2.537375 35.215939 4.122769 -6.878410 -10.408785 0.000000 -0.000000 0.000000 -2.316429 -3.939251 8.685053 1.212585 -1.234697 0.370100 -0.627846 -2.337709 2.735692 3.630010 7.189508 -0.965257 -0.921692 1.850138 6.620368 -28.981616 -2.396771 3.410486 -57.099374 -9.495509 13.033313 4.280215 -39.092292 11.888995 -1.415591 -6.453627 -0.837478 30.188983 3.139987 3.080428 59.834437 4.012494 15.507288 -18.577732 28.755687 -5.764553 5.328907 3.160993 -3.361212 
-0.022268 0.811437 1.005805 -0.229260 2.971443 83.480083 -0.439893 5.578540 14.724478 -1.867485 -6.972681 -2.427266 5.940837 10.332774 -14.869993 0.000000 -0.000000 0.000000 -0.865470 1.386227 -14.243969 -0.434804 -3.425270 33.646314 4.663073 -7.082816 -9.136839 0.000000 -0.000000 0.000000 -2.175197 -4.601699 9.347496 1.231948 -1.482757 0.007028 -0.490423 -2.848240 2.929879 3.728342 7.607533 -0.897193 -0.844886 2.476157 6.539262 -28.427316 -1.859899 2.975637 -57.147279 -9.745111 12.754833 4.548997 -38.503012 11.572379 -1.300320 -6.438610 -0.739323 29.746594 2.376072 2.233844 60.380316 4.326722 15.691142 -18.453964 29.334776 -5.625392 5.116974 3.385278 -3.506927 
